<mxfile host="app.diagrams.net" modified="2024-01-17T06:08:17.746Z" agent="Mozilla/5.0 (Windows NT 10.0; Win64; x64) AppleWebKit/537.36 (KHTML, like Gecko) Chrome/120.0.0.0 Safari/537.36" version="22.1.20" etag="Euwi5rbXdalAdU2FDZ3S" type="github">
  <diagram name="ページ1" id="NGKtn9tUHh8pWkMGkx1u">
    <mxGraphModel>
      <root>
        <mxCell id="0" />
        <mxCell id="1" parent="0" />
      </root>
    </mxGraphModel>
  </diagram>
</mxfile>
